<svg width="53" height="52" viewBox="0 0 53 52" fill="none" xmlns="http://www.w3.org/2000/svg">
<path d="M38.8424 11.9997L27.4024 0.599686C27.029 0.223148 26.5213 0.0103555 25.9909 0.00810519C25.4606 0.00585485 24.9511 0.21433 24.5744 0.587686L24.5624 0.599686L13.1624 11.9997H2.00244C1.47201 11.9997 0.9633 12.2104 0.588228 12.5855C0.213155 12.9605 0.00244141 13.4693 0.00244141 13.9997V49.9997C0.00244141 50.5301 0.213155 51.0388 0.588228 51.4139C0.9633 51.789 1.47201 51.9997 2.00244 51.9997H50.0024C50.5329 51.9997 51.0416 51.789 51.4167 51.4139C51.7917 51.0388 52.0024 50.5301 52.0024 49.9997V13.9997C52.0024 13.4693 51.7917 12.9605 51.4167 12.5855C51.0416 12.2104 50.5329 11.9997 50.0024 11.9997H38.8424ZM26.0024 4.83969L33.1624 11.9997H18.8424L26.0024 4.83969ZM48.0024 47.9997H4.00244V15.9997H48.0024V47.9997ZM16.0024 27.9997C14.9416 27.9997 13.9242 27.5783 13.174 26.8281C12.4239 26.078 12.0024 25.0606 12.0024 23.9997C12.0024 22.9388 12.4239 21.9214 13.174 21.1713C13.9242 20.4211 14.9416 19.9997 16.0024 19.9997C17.0633 19.9997 18.0807 20.4211 18.8309 21.1713C19.581 21.9214 20.0024 22.9388 20.0024 23.9997C20.0024 25.0606 19.581 26.078 18.8309 26.8281C18.0807 27.5783 17.0633 27.9997 16.0024 27.9997ZM44.0024 43.9997H14.0024L20.0024 31.9997L25.0024 41.9997L34.0024 23.9997L44.0024 43.9997Z" fill="#FFF962"/>
</svg>
