<svg width="24" height="23" viewBox="0 0 24 23" fill="none" xmlns="http://www.w3.org/2000/svg">
<path d="M13.0465 5.5801H10.8192V10.0349H6.36437V12.2623H10.8192V16.7171H13.0465V12.2623H17.5013V10.0349H13.0465V5.5801ZM11.9328 0.0116272C5.78525 0.0116272 0.795898 5.00098 0.795898 11.1486C0.795898 17.2962 5.78525 22.2855 11.9328 22.2855C18.0804 22.2855 23.0698 17.2962 23.0698 11.1486C23.0698 5.00098 18.0804 0.0116272 11.9328 0.0116272ZM11.9328 20.0581C7.02145 20.0581 3.02329 16.06 3.02329 11.1486C3.02329 6.23718 7.02145 2.23902 11.9328 2.23902C16.8442 2.23902 20.8424 6.23718 20.8424 11.1486C20.8424 16.06 16.8442 20.0581 11.9328 20.0581Z" fill="#DDDDDD"/>
</svg>
