<svg width="40" height="40" viewBox="0 0 40 40" fill="none" xmlns="http://www.w3.org/2000/svg">
<path fill-rule="evenodd" clip-rule="evenodd" d="M5 10.0002C5 8.67416 5.52678 7.40239 6.46447 6.46471C7.40215 5.52703 8.67392 5.00024 10 5.00024H30C31.3261 5.00024 32.5979 5.52703 33.5355 6.46471C34.4732 7.40239 35 8.67416 35 10.0002V30.0002C35 31.3263 34.4732 32.5981 33.5355 33.5358C32.5979 34.4735 31.3261 35.0002 30 35.0002H10C8.67392 35.0002 7.40215 34.4735 6.46447 33.5358C5.52678 32.5981 5 31.3263 5 30.0002V10.0002ZM21.6667 13.3336C21.6667 12.8915 21.4911 12.4676 21.1785 12.1551C20.8659 11.8425 20.442 11.6669 20 11.6669C19.558 11.6669 19.134 11.8425 18.8215 12.1551C18.5089 12.4676 18.3333 12.8915 18.3333 13.3336V26.6669C18.3333 27.1089 18.5089 27.5329 18.8215 27.8454C19.134 28.158 19.558 28.3336 20 28.3336C20.442 28.3336 20.8659 28.158 21.1785 27.8454C21.4911 27.5329 21.6667 27.1089 21.6667 26.6669V13.3336ZM15 18.3336C15 17.8916 14.8244 17.4676 14.5118 17.1551C14.1993 16.8425 13.7754 16.6669 13.3333 16.6669C12.8913 16.6669 12.4674 16.8425 12.1548 17.1551C11.8423 17.4676 11.6667 17.8916 11.6667 18.3336V26.6669C11.6667 27.1089 11.8423 27.5329 12.1548 27.8454C12.4674 28.158 12.8913 28.3336 13.3333 28.3336C13.7754 28.3336 14.1993 28.158 14.5118 27.8454C14.8244 27.5329 15 27.1089 15 26.6669V18.3336ZM28.3333 23.3336C28.3333 22.8916 28.1577 22.4676 27.8452 22.1551C27.5326 21.8425 27.1087 21.6669 26.6667 21.6669C26.2246 21.6669 25.8007 21.8425 25.4882 22.1551C25.1756 22.4676 25 22.8916 25 23.3336V26.6669C25 27.1089 25.1756 27.5329 25.4882 27.8454C25.8007 28.158 26.2246 28.3336 26.6667 28.3336C27.1087 28.3336 27.5326 28.158 27.8452 27.8454C28.1577 27.5329 28.3333 27.1089 28.3333 26.6669V23.3336Z" fill="white"/>
</svg>
