<svg width="32" height="34" viewBox="0 0 32 34" fill="none" xmlns="http://www.w3.org/2000/svg">
<path d="M25 15.3333H21.6667V12H25M18.3333 15.3333H15V12H18.3333M11.6667 15.3333H8.33333V12H11.6667M30 0.333328H3.33333C2.44928 0.333328 1.60143 0.684518 0.976311 1.30964C0.351189 1.93476 0 2.78261 0 3.66666V33.6667L6.66667 27H30C30.8841 27 31.7319 26.6488 32.357 26.0237C32.9821 25.3986 33.3333 24.5507 33.3333 23.6667V3.66666C33.3333 2.78261 32.9821 1.93476 32.357 1.30964C31.7319 0.684518 30.8841 0.333328 30 0.333328Z" fill="white"/>
</svg>
