<svg width="40" height="40" viewBox="0 0 40 40" fill="none" xmlns="http://www.w3.org/2000/svg">
<path d="M6.66667 21.6667H16.6667C17.1087 21.6667 17.5326 21.4911 17.8452 21.1785C18.1577 20.8659 18.3333 20.442 18.3333 20V6.66667C18.3333 6.22464 18.1577 5.80072 17.8452 5.48816C17.5326 5.17559 17.1087 5 16.6667 5H6.66667C6.22464 5 5.80072 5.17559 5.48816 5.48816C5.17559 5.80072 5 6.22464 5 6.66667V20C5 20.442 5.17559 20.8659 5.48816 21.1785C5.80072 21.4911 6.22464 21.6667 6.66667 21.6667ZM5 33.3333C5 33.7754 5.17559 34.1993 5.48816 34.5118C5.80072 34.8244 6.22464 35 6.66667 35H16.6667C17.1087 35 17.5326 34.8244 17.8452 34.5118C18.1577 34.1993 18.3333 33.7754 18.3333 33.3333V26.6667C18.3333 26.2246 18.1577 25.8007 17.8452 25.4882C17.5326 25.1756 17.1087 25 16.6667 25H6.66667C6.22464 25 5.80072 25.1756 5.48816 25.4882C5.17559 25.8007 5 26.2246 5 26.6667V33.3333ZM21.6667 33.3333C21.6667 33.7754 21.8423 34.1993 22.1548 34.5118C22.4674 34.8244 22.8913 35 23.3333 35H33.3333C33.7754 35 34.1993 34.8244 34.5118 34.5118C34.8244 34.1993 35 33.7754 35 33.3333V21.6667C35 21.2246 34.8244 20.8007 34.5118 20.4882C34.1993 20.1756 33.7754 20 33.3333 20H23.3333C22.8913 20 22.4674 20.1756 22.1548 20.4882C21.8423 20.8007 21.6667 21.2246 21.6667 21.6667V33.3333ZM23.3333 16.6667H33.3333C33.7754 16.6667 34.1993 16.4911 34.5118 16.1785C34.8244 15.866 35 15.442 35 15V6.66667C35 6.22464 34.8244 5.80072 34.5118 5.48816C34.1993 5.17559 33.7754 5 33.3333 5H23.3333C22.8913 5 22.4674 5.17559 22.1548 5.48816C21.8423 5.80072 21.6667 6.22464 21.6667 6.66667V15C21.6667 15.442 21.8423 15.866 22.1548 16.1785C22.4674 16.4911 22.8913 16.6667 23.3333 16.6667Z" fill="white"/>
</svg>
