<svg width="40" height="40" viewBox="0 0 40 40" fill="none" xmlns="http://www.w3.org/2000/svg">
<path d="M30 18.3333C32.4833 18.3333 34.7833 19.1166 36.6666 20.4333V13.3333C36.6666 11.4833 35.1833 9.99995 33.3333 9.99995H26.6666V6.66662C26.6666 4.81662 25.1833 3.33328 23.3333 3.33328H16.6666C14.8166 3.33328 13.3333 4.81662 13.3333 6.66662V9.99995H6.66665C4.81665 9.99995 3.34998 11.4833 3.34998 13.3333L3.33331 31.6666C3.33331 33.5166 4.81665 34.9999 6.66665 34.9999H19.4666C18.6211 33.2225 18.2393 31.2598 18.3569 29.295C18.4745 27.3302 19.0877 25.4271 20.1393 23.7632C21.1909 22.0993 22.6466 20.7287 24.3708 19.7792C26.0951 18.8298 28.0316 18.3323 30 18.3333ZM16.6666 6.66662H23.3333V9.99995H16.6666V6.66662Z" fill="white"/>
<path d="M30 21.6666C25.4 21.6666 21.6667 25.3999 21.6667 29.9999C21.6667 34.5999 25.4 38.3333 30 38.3333C34.6 38.3333 38.3334 34.5999 38.3334 29.9999C38.3334 25.3999 34.6 21.6666 30 21.6666ZM32.75 33.9166L29.1667 30.3333V24.9999H30.8334V29.6499L33.9167 32.7333L32.75 33.9166Z" fill="white"/>
</svg>
