<svg width="7" height="28" viewBox="0 0 7 28" fill="none" xmlns="http://www.w3.org/2000/svg">
<path d="M6.90254 24.2C6.90254 25.1017 6.54433 25.9665 5.9067 26.6042C5.26908 27.2418 4.40427 27.6 3.50254 27.6C2.6008 27.6 1.736 27.2418 1.09838 26.6042C0.460753 25.9665 0.102539 25.1017 0.102539 24.2C0.102539 23.2983 0.460753 22.4335 1.09838 21.7958C1.736 21.1582 2.6008 20.8 3.50254 20.8C4.40427 20.8 5.26908 21.1582 5.9067 21.7958C6.54433 22.4335 6.90254 23.2983 6.90254 24.2ZM6.90254 14C6.90254 14.9017 6.54433 15.7665 5.9067 16.4042C5.26908 17.0418 4.40427 17.4 3.50254 17.4C2.6008 17.4 1.736 17.0418 1.09838 16.4042C0.460753 15.7665 0.102539 14.9017 0.102539 14C0.102539 13.0983 0.460753 12.2335 1.09838 11.5958C1.736 10.9582 2.6008 10.6 3.50254 10.6C4.40427 10.6 5.26908 10.9582 5.9067 11.5958C6.54433 12.2335 6.90254 13.0983 6.90254 14ZM6.90254 3.80001C6.90254 4.70174 6.54433 5.56655 5.9067 6.20417C5.26908 6.84179 4.40427 7.20001 3.50254 7.20001C2.6008 7.20001 1.736 6.84179 1.09838 6.20417C0.460753 5.56655 0.102539 4.70174 0.102539 3.80001C0.102539 2.89827 0.460753 2.03347 1.09838 1.39584C1.736 0.75822 2.6008 0.400007 3.50254 0.400007C4.40427 0.400007 5.26908 0.75822 5.9067 1.39584C6.54433 2.03347 6.90254 2.89827 6.90254 3.80001Z" fill="white"/>
</svg>
