<svg width="18" height="18" viewBox="0 0 18 18" fill="none" xmlns="http://www.w3.org/2000/svg">
<path d="M8.7326 0.795868C4.1219 0.795868 0.379883 4.53788 0.379883 9.14858C0.379883 13.7593 4.1219 17.5013 8.7326 17.5013C13.3433 17.5013 17.0853 13.7593 17.0853 9.14858C17.0853 4.53788 13.3433 0.795868 8.7326 0.795868ZM9.56787 14.9955H7.89733V13.3249H9.56787V14.9955ZM11.2969 8.52213L10.5451 9.29058C9.94374 9.90033 9.56787 10.4015 9.56787 11.6544H7.89733V11.2368C7.89733 10.318 8.2732 9.48269 8.87459 8.87294L9.91033 7.8205C10.2194 7.5198 10.4031 7.10217 10.4031 6.64277C10.4031 5.72397 9.65139 4.97222 8.7326 4.97222C7.8138 4.97222 7.06205 5.72397 7.06205 6.64277H5.39151C5.39151 4.79682 6.88665 3.30168 8.7326 3.30168C10.5785 3.30168 12.0737 4.79682 12.0737 6.64277C12.0737 7.37781 11.773 8.04602 11.2969 8.52213Z" fill="#FFFEFE"/>
</svg>
